<svg id="Layer_1" data-name="Layer 1" xmlns="http://www.w3.org/2000/svg" viewBox="0 0 500 500"><defs><style>.cls-1{fill:#fff;}.cls-2{fill:#231f20;}.cls-3{fill:#f78d1e;}.cls-4{fill:#f48b1f;}.cls-5{fill:#f18a20;}.cls-6{fill:#ef8920;}.cls-7{fill:#ed8821;}.cls-8{fill:#eb8821;}.cls-9{fill:#e98722;}.cls-10{fill:#e78622;}.cls-11{fill:#e68523;}.cls-12{fill:#e48523;}.cls-13{fill:#e28424;}.cls-14{fill:#e18324;}.cls-15{fill:#e08325;}.cls-16{fill:#de8225;}.cls-17{fill:#dd8125;}.cls-18{fill:#db8126;}.cls-19{fill:#da8026;}.cls-20{fill:#d87f26;}.cls-21{fill:#d77f27;}.cls-22{fill:#d67e27;}.cls-23{fill:#d47e28;}.cls-24{fill:#d37d28;}.cls-25{fill:#d27c28;}.cls-26{fill:#d07c29;}.cls-27{fill:#cf7b29;}.cls-28{fill:#cd7a29;}.cls-29{fill:#cc7a2a;}.cls-30{fill:#ca792a;}.cls-31{fill:#c9782a;}.cls-32{fill:#c8782b;}.cls-33{fill:#c6772b;}.cls-34{fill:#c5772b;}.cls-35{fill:#c4762b;}.cls-36{fill:#c2752c;}.cls-37{fill:#c1752c;}.cls-38{fill:#c0742c;}.cls-39{fill:#be742c;}.cls-40{fill:#bd732d;}.cls-41{fill:#bc722d;}.cls-42{fill:#ba722d;}.cls-43{fill:#b9712d;}.cls-44{fill:#b8712e;}.cls-45{fill:#b6702e;}.cls-46{fill:#b56f2e;}.cls-47{fill:#b46f2e;}.cls-48{fill:#b26e2e;}.cls-49{fill:#b16e2f;}.cls-50{fill:#b06d2f;}.cls-51{fill:#af6c2f;}.cls-52{fill:#ad6c2f;}.cls-53{fill:#ac6b2f;}.cls-54{fill:#ab6b2f;}.cls-55{fill:#aa6a2f;}.cls-56{fill:#a86930;}.cls-57{fill:#a76930;}.cls-58{fill:#a66830;}.cls-59{fill:#a46830;}.cls-60{fill:#a36730;}.cls-61{fill:#a26630;}.cls-62{fill:#a16630;}.cls-63{fill:#9f6530;}.cls-64{fill:#9e6531;}.cls-65{fill:#9d6431;}.cls-66{fill:#9c6431;}.cls-67{fill:#9b6331;}.cls-68{fill:#996231;}.cls-69{fill:#986231;}.cls-70{fill:#976131;}.cls-71{fill:#966131;}.cls-72{fill:#946031;}.cls-73{fill:#935f31;}.cls-74{fill:#925f31;}.cls-75{fill:#915e31;}.cls-76{fill:#905e31;}.cls-77{fill:#8e5d32;}.cls-78{fill:#8d5d32;}.cls-79{fill:#8c5c32;}.cls-80{fill:#8b5b32;}.cls-81{fill:#8a5b32;}.cls-82{fill:#895a32;}.cls-83{fill:#875a32;}.cls-84{fill:#865932;}.cls-85{fill:#855932;}.cls-86{fill:#845832;}.cls-87{fill:#835732;}.cls-88{fill:#825732;}.cls-89{fill:#805632;}.cls-90{fill:#7f5632;}.cls-91{fill:#7e5532;}.cls-92{fill:#7d5532;}.cls-93{fill:#7c5432;}.cls-94{fill:#7b5432;}.cls-95{fill:#7a5332;}.cls-96{fill:#795232;}.cls-97{fill:#775232;}.cls-98{fill:#765132;}.cls-99{fill:#755132;}.cls-100{fill:#745032;}.cls-101{fill:#735032;}.cls-102{fill:#724f32;}.cls-103{fill:#714f32;}.cls-104{fill:#704e32;}.cls-105{fill:#6f4e32;}.cls-106{fill:#6e4d32;}.cls-107{fill:#6d4d32;}.cls-108{fill:#6c4c32;}.cls-109{fill:#6b4b32;}.cls-110{fill:#6a4b31;}.cls-111{fill:#694a31;}.cls-112{fill:#684a31;}.cls-113{fill:#674931;}.cls-114{fill:#664931;}.cls-115{fill:#654831;}.cls-116{fill:#644831;}.cls-117{fill:#634731;}.cls-118{fill:#624731;}.cls-119{fill:#614631;}.cls-120{fill:#604631;}.cls-121{fill:#5f4531;}.cls-122{fill:#5e4531;}.cls-123{fill:#5d4431;}.cls-124{fill:#5c4430;}.cls-125{fill:#5b4330;}.cls-126{fill:#5a4330;}.cls-127{fill:#594230;}.cls-128{fill:#584230;}.cls-129{fill:#574130;}.cls-130{fill:#564130;}.cls-131{fill:#554030;}.cls-132{fill:#544030;}.cls-133{fill:#533f2f;}.cls-134{fill:#523f2f;}.cls-135{fill:#513e2f;}.cls-136{fill:#503e2f;}.cls-137{fill:#4f3d2f;}.cls-138{fill:#4e3d2f;}.cls-139{fill:#4e3c2f;}.cls-140{fill:#4d3c2f;}.cls-141{fill:#4c3b2f;}.cls-142{fill:#4b3b2e;}.cls-143{fill:#4a3a2e;}.cls-144{fill:#493a2e;}.cls-145{fill:#48392e;}.cls-146{fill:#47392e;}.cls-147{fill:#46382e;}.cls-148{fill:#45372d;}.cls-149{fill:#44372d;}.cls-150{fill:#43362d;}.cls-151{fill:#42362d;}.cls-152{fill:#41352d;}.cls-153{fill:#40352d;}.cls-154{fill:#3f342c;}.cls-155{fill:#3e342c;}.cls-156{fill:#3d332c;}.cls-157{fill:#3c332c;}.cls-158{fill:#3b322c;}.cls-159{fill:#3a322b;}.cls-160{fill:#39312b;}.cls-161{fill:#38312b;}.cls-162{fill:#38302b;}.cls-163{fill:#37302a;}.cls-164{fill:#362f2a;}.cls-165{fill:#352f2a;}.cls-166{fill:#342e2a;}.cls-167{fill:#332e2a;}.cls-168{fill:#322d29;}.cls-169{fill:#312d29;}.cls-170{fill:#312c29;}.cls-171{fill:#302c29;}.cls-172{fill:#2f2b28;}.cls-173{fill:#2e2b28;}.cls-174{fill:#2d2a28;}.cls-175{fill:#2c2928;}.cls-176{fill:#2b2927;}.cls-177{fill:#2a2827;}.cls-178{fill:#292727;}.cls-179{fill:#282726;}.cls-180{fill:#272626;}.cls-181{fill:#262626;}.cls-182{fill:#f29d34;}.cls-183{fill:#f29d33;}</style></defs><polygon class="cls-1" points="208.11 392.99 208.11 393 208.1 393 208.11 392.99"/><rect class="cls-2" width="500" height="500"/><rect class="cls-3" width="500" height="500" rx="250"/><rect class="cls-4" x="0.08" y="0.08" width="499.83" height="499.83" rx="249.92"/><rect class="cls-5" x="0.17" y="0.17" width="499.67" height="499.67" rx="249.83"/><rect class="cls-6" x="0.25" y="0.25" width="499.5" height="499.5" rx="249.75"/><rect class="cls-7" x="0.33" y="0.33" width="499.34" height="499.34" rx="249.67"/><rect class="cls-8" x="0.41" y="0.41" width="499.17" height="499.17" rx="249.59"/><rect class="cls-9" x="0.5" y="0.5" width="499.01" height="499.01" rx="249.5"/><rect class="cls-10" x="0.58" y="0.58" width="498.84" height="498.84" rx="249.42"/><rect class="cls-11" x="0.66" y="0.66" width="498.67" height="498.67" rx="249.34"/><rect class="cls-12" x="0.75" y="0.75" width="498.51" height="498.51" rx="249.25"/><rect class="cls-13" x="0.83" y="0.83" width="498.34" height="498.34" rx="249.17"/><rect class="cls-14" x="0.91" y="0.91" width="498.18" height="498.18" rx="249.09"/><rect class="cls-15" x="0.99" y="0.99" width="498.01" height="498.01" rx="249.01"/><rect class="cls-16" x="1.08" y="1.08" width="497.85" height="497.85" rx="248.92"/><rect class="cls-17" x="1.16" y="1.16" width="497.68" height="497.68" rx="248.84"/><rect class="cls-18" x="1.24" y="1.24" width="497.51" height="497.51" rx="248.76"/><rect class="cls-19" x="1.33" y="1.33" width="497.35" height="497.35" rx="248.67"/><rect class="cls-20" x="1.41" y="1.41" width="497.18" height="497.18" rx="248.59"/><rect class="cls-21" x="1.49" y="1.49" width="497.02" height="497.02" rx="248.51"/><rect class="cls-22" x="1.57" y="1.57" width="496.85" height="496.85" rx="248.43"/><rect class="cls-23" x="1.66" y="1.66" width="496.69" height="496.69" rx="248.34"/><rect class="cls-24" x="1.74" y="1.74" width="496.52" height="496.52" rx="248.26"/><rect class="cls-25" x="1.82" y="1.82" width="496.35" height="496.35" rx="248.18"/><rect class="cls-26" x="1.91" y="1.91" width="496.19" height="496.19" rx="248.09"/><rect class="cls-27" x="1.99" y="1.99" width="496.02" height="496.02" rx="248.01"/><rect class="cls-28" x="2.07" y="2.07" width="495.86" height="495.86" rx="247.93"/><rect class="cls-29" x="2.15" y="2.15" width="495.69" height="495.69" rx="247.85"/><rect class="cls-30" x="2.24" y="2.24" width="495.52" height="495.52" rx="247.76"/><rect class="cls-31" x="2.32" y="2.32" width="495.36" height="495.36" rx="247.68"/><rect class="cls-32" x="2.4" y="2.4" width="495.19" height="495.19" rx="247.6"/><rect class="cls-33" x="2.49" y="2.49" width="495.03" height="495.03" rx="247.51"/><rect class="cls-34" x="2.57" y="2.57" width="494.86" height="494.86" rx="247.43"/><rect class="cls-35" x="2.65" y="2.65" width="494.7" height="494.7" rx="247.35"/><rect class="cls-36" x="2.73" y="2.73" width="494.53" height="494.53" rx="247.26"/><rect class="cls-37" x="2.82" y="2.82" width="494.36" height="494.36" rx="247.18"/><rect class="cls-38" x="2.9" y="2.9" width="494.2" height="494.2" rx="247.1"/><rect class="cls-39" x="2.98" y="2.98" width="494.03" height="494.03" rx="247.02"/><rect class="cls-40" x="3.07" y="3.07" width="493.87" height="493.87" rx="246.93"/><rect class="cls-41" x="3.15" y="3.15" width="493.7" height="493.7" rx="246.85"/><rect class="cls-42" x="3.23" y="3.23" width="493.54" height="493.54" rx="246.77"/><rect class="cls-43" x="3.31" y="3.31" width="493.37" height="493.37" rx="246.68"/><rect class="cls-44" x="3.4" y="3.4" width="493.2" height="493.2" rx="246.6"/><rect class="cls-45" x="3.48" y="3.48" width="493.04" height="493.04" rx="246.52"/><rect class="cls-46" x="3.56" y="3.56" width="492.87" height="492.87" rx="246.44"/><rect class="cls-47" x="3.65" y="3.65" width="492.71" height="492.71" rx="246.35"/><rect class="cls-48" x="3.73" y="3.73" width="492.54" height="492.54" rx="246.27"/><rect class="cls-49" x="3.81" y="3.81" width="492.38" height="492.38" rx="246.19"/><rect class="cls-50" x="3.9" y="3.9" width="492.21" height="492.21" rx="246.1"/><rect class="cls-51" x="3.98" y="3.98" width="492.04" height="492.04" rx="246.02"/><rect class="cls-52" x="4.06" y="4.06" width="491.88" height="491.88" rx="245.94"/><rect class="cls-53" x="4.14" y="4.14" width="491.71" height="491.71" rx="245.86"/><rect class="cls-54" x="4.23" y="4.23" width="491.55" height="491.55" rx="245.77"/><rect class="cls-55" x="4.31" y="4.31" width="491.38" height="491.38" rx="245.69"/><rect class="cls-56" x="4.39" y="4.39" width="491.22" height="491.22" rx="245.61"/><rect class="cls-57" x="4.48" y="4.48" width="491.05" height="491.05" rx="245.52"/><rect class="cls-58" x="4.56" y="4.56" width="490.88" height="490.88" rx="245.44"/><rect class="cls-59" x="4.64" y="4.64" width="490.72" height="490.72" rx="245.36"/><rect class="cls-60" x="4.72" y="4.72" width="490.55" height="490.55" rx="245.28"/><rect class="cls-61" x="4.81" y="4.81" width="490.39" height="490.39" rx="245.19"/><rect class="cls-62" x="4.89" y="4.89" width="490.22" height="490.22" rx="245.11"/><rect class="cls-63" x="4.97" y="4.97" width="490.06" height="490.06" rx="245.03"/><rect class="cls-64" x="5.06" y="5.06" width="489.89" height="489.89" rx="244.94"/><rect class="cls-65" x="5.14" y="5.14" width="489.72" height="489.72" rx="244.86"/><rect class="cls-66" x="5.22" y="5.22" width="489.56" height="489.56" rx="244.78"/><rect class="cls-67" x="5.3" y="5.3" width="489.39" height="489.39" rx="244.7"/><rect class="cls-68" x="5.39" y="5.39" width="489.23" height="489.23" rx="244.61"/><rect class="cls-69" x="5.47" y="5.47" width="489.06" height="489.06" rx="244.53"/><rect class="cls-70" x="5.55" y="5.55" width="488.9" height="488.9" rx="244.45"/><rect class="cls-71" x="5.64" y="5.64" width="488.73" height="488.73" rx="244.36"/><rect class="cls-72" x="5.72" y="5.72" width="488.56" height="488.56" rx="244.28"/><rect class="cls-73" x="5.8" y="5.8" width="488.4" height="488.4" rx="244.2"/><rect class="cls-74" x="5.88" y="5.88" width="488.23" height="488.23" rx="244.12"/><rect class="cls-75" x="5.97" y="5.97" width="488.07" height="488.07" rx="244.03"/><rect class="cls-76" x="6.05" y="6.05" width="487.9" height="487.9" rx="243.95"/><rect class="cls-77" x="6.13" y="6.13" width="487.73" height="487.73" rx="243.87"/><rect class="cls-78" x="6.22" y="6.22" width="487.57" height="487.57" rx="243.78"/><rect class="cls-79" x="6.3" y="6.3" width="487.4" height="487.4" rx="243.7"/><rect class="cls-80" x="6.38" y="6.38" width="487.24" height="487.24" rx="243.62"/><rect class="cls-81" x="6.46" y="6.46" width="487.07" height="487.07" rx="243.54"/><rect class="cls-82" x="6.55" y="6.55" width="486.91" height="486.91" rx="243.45"/><rect class="cls-83" x="6.63" y="6.63" width="486.74" height="486.74" rx="243.37"/><rect class="cls-84" x="6.71" y="6.71" width="486.57" height="486.57" rx="243.29"/><rect class="cls-85" x="6.8" y="6.8" width="486.41" height="486.41" rx="243.2"/><rect class="cls-86" x="6.88" y="6.88" width="486.24" height="486.24" rx="243.12"/><rect class="cls-87" x="6.96" y="6.96" width="486.08" height="486.08" rx="243.04"/><rect class="cls-88" x="7.04" y="7.04" width="485.91" height="485.91" rx="242.96"/><rect class="cls-89" x="7.13" y="7.13" width="485.75" height="485.75" rx="242.87"/><rect class="cls-90" x="7.21" y="7.21" width="485.58" height="485.58" rx="242.79"/><rect class="cls-91" x="7.29" y="7.29" width="485.41" height="485.41" rx="242.71"/><rect class="cls-92" x="7.38" y="7.38" width="485.25" height="485.25" rx="242.62"/><rect class="cls-93" x="7.46" y="7.46" width="485.08" height="485.08" rx="242.54"/><rect class="cls-94" x="7.54" y="7.54" width="484.92" height="484.92" rx="242.46"/><rect class="cls-95" x="7.62" y="7.62" width="484.75" height="484.75" rx="242.38"/><rect class="cls-96" x="7.71" y="7.71" width="484.59" height="484.59" rx="242.29"/><rect class="cls-97" x="7.79" y="7.79" width="484.42" height="484.42" rx="242.21"/><rect class="cls-98" x="7.87" y="7.87" width="484.25" height="484.25" rx="242.13"/><rect class="cls-99" x="7.96" y="7.96" width="484.09" height="484.09" rx="242.04"/><rect class="cls-100" x="8.04" y="8.04" width="483.92" height="483.92" rx="241.96"/><rect class="cls-101" x="8.12" y="8.12" width="483.76" height="483.76" rx="241.88"/><rect class="cls-102" x="8.2" y="8.2" width="483.59" height="483.59" rx="241.8"/><rect class="cls-103" x="8.29" y="8.29" width="483.43" height="483.43" rx="241.71"/><rect class="cls-104" x="8.37" y="8.37" width="483.26" height="483.26" rx="241.63"/><rect class="cls-105" x="8.45" y="8.45" width="483.09" height="483.09" rx="241.55"/><rect class="cls-106" x="8.54" y="8.54" width="482.93" height="482.93" rx="241.46"/><rect class="cls-107" x="8.62" y="8.62" width="482.76" height="482.76" rx="241.38"/><rect class="cls-108" x="8.7" y="8.7" width="482.6" height="482.6" rx="241.3"/><rect class="cls-109" x="8.78" y="8.78" width="482.43" height="482.43" rx="241.22"/><rect class="cls-110" x="8.87" y="8.87" width="482.27" height="482.27" rx="241.13"/><rect class="cls-111" x="8.95" y="8.95" width="482.1" height="482.1" rx="241.05"/><rect class="cls-112" x="9.03" y="9.03" width="481.93" height="481.93" rx="240.97"/><rect class="cls-113" x="9.12" y="9.12" width="481.77" height="481.77" rx="240.88"/><rect class="cls-114" x="9.2" y="9.2" width="481.6" height="481.6" rx="240.8"/><rect class="cls-115" x="9.28" y="9.28" width="481.44" height="481.44" rx="240.72"/><rect class="cls-116" x="9.36" y="9.36" width="481.27" height="481.27" rx="240.64"/><rect class="cls-117" x="9.45" y="9.45" width="481.1" height="481.1" rx="240.55"/><rect class="cls-118" x="9.53" y="9.53" width="480.94" height="480.94" rx="240.47"/><rect class="cls-119" x="9.61" y="9.61" width="480.77" height="480.77" rx="240.39"/><rect class="cls-120" x="9.7" y="9.7" width="480.61" height="480.61" rx="240.3"/><rect class="cls-121" x="9.78" y="9.78" width="480.44" height="480.44" rx="240.22"/><rect class="cls-122" x="9.86" y="9.86" width="480.28" height="480.28" rx="240.14"/><rect class="cls-123" x="9.94" y="9.94" width="480.11" height="480.11" rx="240.06"/><rect class="cls-124" x="10.03" y="10.03" width="479.94" height="479.94" rx="239.97"/><rect class="cls-125" x="10.11" y="10.11" width="479.78" height="479.78" rx="239.89"/><rect class="cls-126" x="10.19" y="10.19" width="479.61" height="479.61" rx="239.81"/><rect class="cls-127" x="10.28" y="10.28" width="479.45" height="479.45" rx="239.72"/><rect class="cls-128" x="10.36" y="10.36" width="479.28" height="479.28" rx="239.64"/><rect class="cls-129" x="10.44" y="10.44" width="479.12" height="479.12" rx="239.56"/><rect class="cls-130" x="10.52" y="10.52" width="478.95" height="478.95" rx="239.47"/><rect class="cls-131" x="10.61" y="10.61" width="478.78" height="478.78" rx="239.39"/><rect class="cls-132" x="10.69" y="10.69" width="478.62" height="478.62" rx="239.31"/><rect class="cls-133" x="10.77" y="10.77" width="478.45" height="478.45" rx="239.23"/><rect class="cls-134" x="10.86" y="10.86" width="478.29" height="478.29" rx="239.14"/><rect class="cls-135" x="10.94" y="10.94" width="478.12" height="478.12" rx="239.06"/><rect class="cls-136" x="11.02" y="11.02" width="477.96" height="477.96" rx="238.98"/><rect class="cls-137" x="11.1" y="11.1" width="477.79" height="477.79" rx="238.89"/><rect class="cls-138" x="11.19" y="11.19" width="477.62" height="477.62" rx="238.81"/><rect class="cls-139" x="11.27" y="11.27" width="477.46" height="477.46" rx="238.73"/><rect class="cls-140" x="11.35" y="11.35" width="477.29" height="477.29" rx="238.65"/><rect class="cls-141" x="11.44" y="11.44" width="477.13" height="477.13" rx="238.56"/><rect class="cls-142" x="11.52" y="11.52" width="476.96" height="476.96" rx="238.48"/><rect class="cls-143" x="11.6" y="11.6" width="476.8" height="476.8" rx="238.4"/><rect class="cls-144" x="11.69" y="11.69" width="476.63" height="476.63" rx="238.31"/><rect class="cls-145" x="11.77" y="11.77" width="476.46" height="476.46" rx="238.23"/><rect class="cls-146" x="11.85" y="11.85" width="476.3" height="476.3" rx="238.15"/><rect class="cls-147" x="11.93" y="11.93" width="476.13" height="476.13" rx="238.07"/><rect class="cls-147" x="12.02" y="12.02" width="475.97" height="475.97" rx="237.98"/><rect class="cls-148" x="12.1" y="12.1" width="475.8" height="475.8" rx="237.9"/><rect class="cls-149" x="12.18" y="12.18" width="475.64" height="475.64" rx="237.82"/><rect class="cls-150" x="12.27" y="12.27" width="475.47" height="475.47" rx="237.73"/><rect class="cls-151" x="12.35" y="12.35" width="475.3" height="475.3" rx="237.65"/><rect class="cls-152" x="12.43" y="12.43" width="475.14" height="475.14" rx="237.57"/><rect class="cls-153" x="12.51" y="12.51" width="474.97" height="474.97" rx="237.49"/><rect class="cls-154" x="12.6" y="12.6" width="474.81" height="474.81" rx="237.4"/><rect class="cls-154" x="12.68" y="12.68" width="474.64" height="474.64" rx="237.32"/><rect class="cls-155" x="12.76" y="12.76" width="474.48" height="474.48" rx="237.24"/><rect class="cls-156" x="12.85" y="12.85" width="474.31" height="474.31" rx="237.15"/><rect class="cls-157" x="12.93" y="12.93" width="474.14" height="474.14" rx="237.07"/><rect class="cls-158" x="13.01" y="13.01" width="473.98" height="473.98" rx="236.99"/><rect class="cls-159" x="13.09" y="13.09" width="473.81" height="473.81" rx="236.91"/><rect class="cls-160" x="13.18" y="13.18" width="473.65" height="473.65" rx="236.82"/><rect class="cls-161" x="13.26" y="13.26" width="473.48" height="473.48" rx="236.74"/><rect class="cls-162" x="13.34" y="13.34" width="473.31" height="473.31" rx="236.66"/><rect class="cls-163" x="13.43" y="13.43" width="473.15" height="473.15" rx="236.57"/><rect class="cls-164" x="13.51" y="13.51" width="472.98" height="472.98" rx="236.49"/><rect class="cls-165" x="13.59" y="13.59" width="472.82" height="472.82" rx="236.41"/><rect class="cls-166" x="13.67" y="13.67" width="472.65" height="472.65" rx="236.33"/><rect class="cls-167" x="13.76" y="13.76" width="472.49" height="472.49" rx="236.24"/><rect class="cls-168" x="13.84" y="13.84" width="472.32" height="472.32" rx="236.16"/><rect class="cls-169" x="13.92" y="13.92" width="472.15" height="472.15" rx="236.08"/><rect class="cls-170" x="14.01" y="14.01" width="471.99" height="471.99" rx="235.99"/><rect class="cls-171" x="14.09" y="14.09" width="471.82" height="471.82" rx="235.91"/><rect class="cls-172" x="14.17" y="14.17" width="471.66" height="471.66" rx="235.83"/><rect class="cls-173" x="14.25" y="14.25" width="471.49" height="471.49" rx="235.75"/><rect class="cls-174" x="14.34" y="14.34" width="471.33" height="471.33" rx="235.66"/><rect class="cls-175" x="14.42" y="14.42" width="471.16" height="471.16" rx="235.58"/><rect class="cls-176" x="14.5" y="14.5" width="470.99" height="470.99" rx="235.5"/><rect class="cls-177" x="14.59" y="14.59" width="470.83" height="470.83" rx="235.41"/><rect class="cls-177" x="14.67" y="14.67" width="470.66" height="470.66" rx="235.33"/><rect class="cls-178" x="14.75" y="14.75" width="470.5" height="470.5" rx="235.25"/><rect class="cls-179" x="14.83" y="14.83" width="470.33" height="470.33" rx="235.17"/><rect class="cls-180" x="14.92" y="14.92" width="470.17" height="470.17" rx="235.08"/><rect class="cls-181" x="15" y="15" width="470" height="470" rx="235"/><polygon class="cls-182" points="249.94 376.5 306.94 277.76 219.49 277.76 203.27 249.68 202.16 247.76 358.9 247.76 358.36 248.69 267.71 405.71 232.16 405.71 90.77 160.81 409.23 160.81 391.91 190.81 142.73 190.81 249.94 376.5"/><polygon class="cls-2" points="358.9 247.76 358.9 247.86 358.36 248.69 358.9 247.76"/><path class="cls-182" d="M332.2,210.74a2.18,2.18,0,0,1-1.53-3.72,2.18,2.18,0,0,1,3.71,1.54,2.2,2.2,0,0,1-2.18,2.18Zm0,21a1.64,1.64,0,0,1-1.68-1.69V215.36a1.6,1.6,0,0,1,.48-1.22,1.68,1.68,0,0,1,2.89,1.22V230a1.7,1.7,0,0,1-.46,1.21A1.63,1.63,0,0,1,332.2,231.73Z"/><path class="cls-182" d="M348.34,231.86a8.94,8.94,0,0,1-7.9-4.49,9.13,9.13,0,0,1-1.21-4.69,9.73,9.73,0,0,1,1.11-4.67,8.55,8.55,0,0,1,3-3.26,7.86,7.86,0,0,1,4.32-1.21,8.06,8.06,0,0,1,3.6.81,8.16,8.16,0,0,1,2.77,2.19v-8.9a1.63,1.63,0,0,1,.48-1.23,1.69,1.69,0,0,1,1.2-.46,1.6,1.6,0,0,1,1.69,1.69v15a9.23,9.23,0,0,1-1.21,4.69,9,9,0,0,1-3.25,3.28A8.85,8.85,0,0,1,348.34,231.86Zm0-3a5.6,5.6,0,0,0,5.08-3,6.54,6.54,0,0,0,.76-3.17,6.42,6.42,0,0,0-.76-3.16,5.72,5.72,0,0,0-2.08-2.2,5.92,5.92,0,0,0-6,0,5.82,5.82,0,0,0-2.12,2.2,6.43,6.43,0,0,0-.77,3.16,6.55,6.55,0,0,0,.77,3.17,5.76,5.76,0,0,0,2.12,2.23A5.62,5.62,0,0,0,348.34,228.89Z"/><path class="cls-182" d="M316.09,221.39a20.17,20.17,0,0,1-.71,5.3c-.18.64-.39,1.28-.63,1.89v0a17.12,17.12,0,0,1-.74,1.7c-.18.36-.37.72-.57,1.07l-.2.35a20.56,20.56,0,0,1-3,3.81,20,20,0,1,1,3.62-23.34c.22.42.42.84.6,1.28l0,.06a18.59,18.59,0,0,1,.8,2.24c.06.22.12.43.17.65s.07.25.1.37A19.44,19.44,0,0,1,316.09,221.39Z"/><path class="cls-181" d="M296.64,231.56a1.74,1.74,0,0,1-1.59-1.09l-7-14.75a1.31,1.31,0,0,1-.05-1.11,1.57,1.57,0,0,1,.84-.84,1.42,1.42,0,0,1,1.14-.1,1.58,1.58,0,0,1,.87.76l6.54,14.09h-1.59l6.47-14.09a1.56,1.56,0,0,1,.91-.76,1.68,1.68,0,0,1,1.24.1,1.42,1.42,0,0,1,.72,1.95l-7,14.75A1.59,1.59,0,0,1,296.64,231.56Z"/><path class="cls-181" d="M311,225.78a6.5,6.5,0,0,1-.76-3.2,6.63,6.63,0,0,1,.76-3.22,5.6,5.6,0,0,1,2.07-2.19,5.47,5.47,0,0,1,2.35-.75c-.05-.22-.11-.43-.17-.65a18.59,18.59,0,0,0-.8-2.24,8.68,8.68,0,0,0-3.06,1.05,8.54,8.54,0,0,0-3.22,3.23,10.25,10.25,0,0,0,0,9.51,8.54,8.54,0,0,0,3.22,3.23,8.08,8.08,0,0,0,2,.82c.2-.35.39-.71.57-1.07a17.12,17.12,0,0,0,.74-1.7,5.19,5.19,0,0,1-1.64-.64A5.57,5.57,0,0,1,311,225.78Z"/><path class="cls-183" d="M325.22,222.58a9.56,9.56,0,0,1-1.16,4.74,8.42,8.42,0,0,1-3.2,3.23,8.8,8.8,0,0,1-3.12,1.06,11.82,11.82,0,0,1-1.6.11h-.05a10.3,10.3,0,0,1-2.66-.35c.2-.35.39-.71.57-1.07a17.12,17.12,0,0,0,.74-1.7,6.33,6.33,0,0,0,1.4.15,5.86,5.86,0,0,0,1.47-.17,5.31,5.31,0,0,0,1.51-.58l.06,0a5.55,5.55,0,0,0,2.06-2.18,6.72,6.72,0,0,0,.74-3.2,6.86,6.86,0,0,0-.74-3.22,5.57,5.57,0,0,0-2.06-2.19l-.16-.09a4.85,4.85,0,0,0-.61-.29,6,6,0,0,0-2.27-.41,5.12,5.12,0,0,0-.69,0c-.05-.22-.11-.43-.17-.65a18.59,18.59,0,0,0-.8-2.24,11.5,11.5,0,0,1,2.83-.06l.28,0a8.86,8.86,0,0,1,3.24,1.08,8.51,8.51,0,0,1,3.21,3.23A9.53,9.53,0,0,1,325.22,222.58Z"/></svg>